<svg width="1006" height="167" viewBox="0 0 1006 167" fill="none" xmlns="http://www.w3.org/2000/svg">
<g clip-path="url(#clip0_93_6660)">
<rect width="1005.72" height="166.915" fill="url(#paint0_radial_93_6660)"/>
<g style="mix-blend-mode:multiply" opacity="0.75" filter="url(#filter0_i_93_6660)">
<ellipse cx="534.604" cy="497.908" rx="638.817" ry="651.936" transform="rotate(90 534.604 497.908)" fill="white"/>
</g>
<g style="mix-blend-mode:multiply" opacity="0.75" filter="url(#filter1_i_93_6660)">
<ellipse cx="387.746" cy="497.908" rx="494.509" ry="505.077" transform="rotate(90 387.746 497.908)" fill="white"/>
</g>
<g style="mix-blend-mode:multiply" opacity="0.75" filter="url(#filter2_i_93_6660)">
<ellipse cx="368.428" cy="545.281" rx="420.169" ry="428.915" transform="rotate(90 368.428 545.281)" fill="white"/>
</g>
<path d="M458.267 85H456.647L460.288 74.8839H462.051L465.691 85H464.071L461.211 76.7214H461.132L458.267 85ZM458.539 81.0385H463.795V82.3228H458.539V81.0385ZM475.317 74.8839V85H473.914L468.772 77.5809H468.678V85H467.152V74.8839H468.565L473.712 82.3129H473.806V74.8839H475.317ZM484.049 74.8839H485.58V81.5374C485.58 82.2454 485.414 82.8727 485.081 83.4194C484.749 83.9627 484.281 84.3908 483.678 84.7036C483.076 85.0132 482.37 85.1679 481.559 85.1679C480.753 85.1679 480.048 85.0132 479.445 84.7036C478.843 84.3908 478.375 83.9627 478.043 83.4194C477.71 82.8727 477.544 82.2454 477.544 81.5374V74.8839H479.07V81.4139C479.07 81.8717 479.17 82.2783 479.371 82.634C479.575 82.9896 479.864 83.2695 480.236 83.4737C480.608 83.6746 481.049 83.775 481.559 83.775C482.073 83.775 482.516 83.6746 482.888 83.4737C483.264 83.2695 483.55 82.9896 483.748 82.634C483.948 82.2783 484.049 81.8717 484.049 81.4139V74.8839ZM495.964 74.8839V85H494.561L489.419 77.5809H489.326V85H487.799V74.8839H489.212L494.359 82.3129H494.453V74.8839H495.964ZM506.593 78.1736H505.052C504.992 77.8443 504.882 77.5546 504.721 77.3043C504.559 77.054 504.362 76.8416 504.128 76.6671C503.894 76.4926 503.632 76.3609 503.343 76.2719C503.056 76.183 502.751 76.1386 502.429 76.1386C501.846 76.1386 501.324 76.2851 500.863 76.5782C500.405 76.8713 500.043 77.301 499.776 77.8674C499.513 78.4338 499.381 79.1253 499.381 79.942C499.381 80.7652 499.513 81.46 499.776 82.0264C500.043 82.5928 500.407 83.0209 500.868 83.3107C501.329 83.6005 501.848 83.7454 502.424 83.7454C502.743 83.7454 503.046 83.7026 503.333 83.6169C503.622 83.528 503.884 83.398 504.118 83.2267C504.352 83.0555 504.549 82.8464 504.711 82.5994C504.875 82.3491 504.989 82.0627 505.052 81.7399L506.593 81.7449C506.51 82.2421 506.351 82.6998 506.114 83.1181C505.88 83.533 505.578 83.8919 505.21 84.1949C504.844 84.4945 504.426 84.7267 503.955 84.8913C503.484 85.056 502.97 85.1383 502.414 85.1383C501.538 85.1383 500.758 84.9308 500.073 84.5159C499.388 84.0977 498.848 83.5 498.452 82.7229C498.061 81.9458 497.865 81.0188 497.865 79.942C497.865 78.8619 498.062 77.9349 498.457 77.161C498.853 76.3839 499.393 75.7879 500.078 75.373C500.762 74.9547 501.541 74.7456 502.414 74.7456C502.951 74.7456 503.451 74.823 503.916 74.9778C504.383 75.1293 504.803 75.3532 505.175 75.6496C505.547 75.9426 505.855 76.3016 506.099 76.7264C506.342 77.1479 506.507 77.6303 506.593 78.1736ZM509.945 74.8839V85H508.419V74.8839H509.945ZM520.955 79.942C520.955 81.0221 520.758 81.9507 520.363 82.7278C519.968 83.5017 519.426 84.0977 518.738 84.5159C518.053 84.9308 517.274 85.1383 516.401 85.1383C515.525 85.1383 514.743 84.9308 514.055 84.5159C513.37 84.0977 512.83 83.5 512.435 82.7229C512.04 81.9458 511.842 81.0188 511.842 79.942C511.842 78.8619 512.04 77.9349 512.435 77.161C512.83 76.3839 513.37 75.7879 514.055 75.373C514.743 74.9547 515.525 74.7456 516.401 74.7456C517.274 74.7456 518.053 74.9547 518.738 75.373C519.426 75.7879 519.968 76.3839 520.363 77.161C520.758 77.9349 520.955 78.8619 520.955 79.942ZM519.444 79.942C519.444 79.1187 519.311 78.4256 519.044 77.8625C518.78 77.2961 518.418 76.868 517.957 76.5782C517.499 76.2851 516.981 76.1386 516.401 76.1386C515.818 76.1386 515.298 76.2851 514.84 76.5782C514.383 76.868 514.02 77.2961 513.754 77.8625C513.49 78.4256 513.359 79.1187 513.359 79.942C513.359 80.7652 513.49 81.46 513.754 82.0264C514.02 82.5895 514.383 83.0176 514.84 83.3107C515.298 83.6005 515.818 83.7454 516.401 83.7454C516.981 83.7454 517.499 83.6005 517.957 83.3107C518.418 83.0176 518.78 82.5895 519.044 82.0264C519.311 81.46 519.444 80.7652 519.444 79.942ZM528.376 77.5414C528.323 77.0738 528.106 76.7116 527.724 76.4547C527.342 76.1946 526.861 76.0645 526.281 76.0645C525.867 76.0645 525.508 76.1303 525.205 76.2621C524.902 76.3905 524.666 76.5683 524.498 76.7955C524.334 77.0194 524.251 77.2747 524.251 77.5611C524.251 77.8015 524.307 78.009 524.419 78.1835C524.535 78.358 524.684 78.5046 524.869 78.6231C525.056 78.7384 525.257 78.8355 525.471 78.9146C525.685 78.9903 525.891 79.0529 526.089 79.1023L527.077 79.3591C527.399 79.4381 527.73 79.5452 528.07 79.6802C528.409 79.8152 528.723 79.993 529.013 80.2136C529.303 80.4343 529.537 80.7076 529.714 81.0336C529.896 81.3596 529.986 81.7498 529.986 82.2043C529.986 82.7772 529.838 83.286 529.542 83.7306C529.248 84.1751 528.822 84.5258 528.262 84.7827C527.706 85.0395 527.032 85.1679 526.242 85.1679C525.485 85.1679 524.829 85.0477 524.276 84.8074C523.723 84.567 523.29 84.2261 522.977 83.7849C522.664 83.3403 522.491 82.8135 522.458 82.2043H523.99C524.019 82.5698 524.138 82.8744 524.345 83.1181C524.556 83.3584 524.824 83.5379 525.15 83.6565C525.48 83.7717 525.84 83.8293 526.232 83.8293C526.663 83.8293 527.047 83.7618 527.383 83.6268C527.722 83.4885 527.989 83.2975 528.183 83.0538C528.377 82.8069 528.475 82.5187 528.475 82.1894C528.475 81.8898 528.389 81.6444 528.218 81.4535C528.05 81.2625 527.821 81.1044 527.531 80.9793C527.245 80.8541 526.92 80.7438 526.558 80.6483L525.363 80.3223C524.553 80.1017 523.911 79.7773 523.436 79.3492C522.965 78.9211 522.73 78.3548 522.73 77.6501C522.73 77.0672 522.888 76.5584 523.204 76.1238C523.52 75.6891 523.948 75.3516 524.488 75.1112C525.028 74.8675 525.638 74.7456 526.316 74.7456C527.001 74.7456 527.605 74.8658 528.129 75.1062C528.656 75.3466 529.071 75.6776 529.374 76.0991C529.677 76.5173 529.835 76.998 529.848 77.5414H528.376Z" fill="white"/>
<g filter="url(#filter3_d_93_6660)">
<rect x="811.006" y="71" width="127" height="24.1906" rx="2.41906" fill="white" fill-opacity="0.1"/>
<path d="M832.661 85.0413H832.872C834.036 85.0413 835.023 84.2961 835.37 83.2628C835.421 83.1124 835.305 82.9573 835.145 82.9573H834.494C834.287 82.9573 834.119 82.7918 834.119 82.5876C834.119 82.3828 834.287 82.2168 834.494 82.2168H835.125C835.335 82.2168 835.504 82.0496 835.504 81.843C835.504 81.6365 835.335 81.4693 835.125 81.4693H834.494C834.287 81.4693 834.119 81.3032 834.119 81.099C834.119 80.8942 834.287 80.7282 834.494 80.7282H835.125C835.335 80.7282 835.504 80.561 835.504 80.3544C835.504 80.1479 835.335 79.9807 835.125 79.9807H834.494C834.287 79.9807 834.119 79.8146 834.119 79.6098C834.119 79.4056 834.287 79.2396 834.494 79.2396H835.179C835.336 79.2396 835.448 79.0914 835.406 78.9416C835.095 77.8487 834.079 77.048 832.872 77.048H832.661C831.207 77.048 830.029 78.2109 830.029 79.6469V82.4424C830.029 83.8778 831.207 85.0413 832.661 85.0413" fill="white"/>
<path opacity="0.4" d="M837.321 81.7809C836.998 81.7809 836.736 82.0395 836.736 82.3594C836.736 84.5203 834.955 86.2785 832.767 86.2785C830.578 86.2785 828.798 84.5203 828.798 82.3594C828.798 82.0395 828.535 81.7809 828.212 81.7809C827.889 81.7809 827.626 82.0395 827.626 82.3594C827.626 84.9629 829.622 87.1122 832.181 87.4009V88.5649C832.181 88.8843 832.443 89.1435 832.767 89.1435C833.09 89.1435 833.353 88.8843 833.353 88.5649V87.4009C835.912 87.1122 837.907 84.9629 837.907 82.3594C837.907 82.0395 837.645 81.7809 837.321 81.7809" fill="white"/>
<path d="M851.074 87.0476H850.18L852.764 80.0104H853.644L856.228 87.0476H855.334L853.231 81.1237H853.176L851.074 87.0476ZM851.403 84.2987H855.005V85.0547H851.403V84.2987ZM858.025 83.8726V87.0476H857.214V81.7697H857.997V82.5944H858.066C858.19 82.3264 858.378 82.111 858.63 81.9484C858.882 81.7834 859.207 81.701 859.606 81.701C859.963 81.701 860.276 81.7743 860.544 81.9209C860.812 82.0652 861.02 82.2851 861.169 82.5806C861.318 82.8738 861.392 83.245 861.392 83.6939V87.0476H860.581V83.7489C860.581 83.3343 860.474 83.0113 860.258 82.7799C860.043 82.5463 859.748 82.4294 859.372 82.4294C859.113 82.4294 858.882 82.4856 858.678 82.5978C858.476 82.7101 858.317 82.8738 858.2 83.0892C858.083 83.3045 858.025 83.5657 858.025 83.8726ZM863.685 83.8726V87.0476H862.874V81.7697H863.658V82.5944H863.726C863.85 82.3264 864.038 82.111 864.29 81.9484C864.542 81.7834 864.867 81.701 865.266 81.701C865.623 81.701 865.936 81.7743 866.204 81.9209C866.472 82.0652 866.68 82.2851 866.829 82.5806C866.978 82.8738 867.053 83.245 867.053 83.6939V87.0476H866.242V83.7489C866.242 83.3343 866.134 83.0113 865.919 82.7799C865.703 82.5463 865.408 82.4294 865.032 82.4294C864.773 82.4294 864.542 82.4856 864.338 82.5978C864.136 82.7101 863.977 82.8738 863.86 83.0892C863.744 83.3045 863.685 83.5657 863.685 83.8726ZM870.679 87.1576C870.202 87.1576 869.784 87.0442 869.424 86.8174C869.067 86.5906 868.788 86.2734 868.586 85.8656C868.387 85.4578 868.287 84.9814 868.287 84.4362C868.287 83.8864 868.387 83.4065 868.586 82.9964C868.788 82.5864 869.067 82.2679 869.424 82.0412C869.784 81.8144 870.202 81.701 870.679 81.701C871.155 81.701 871.572 81.8144 871.929 82.0412C872.289 82.2679 872.568 82.5864 872.768 82.9964C872.969 83.4065 873.07 83.8864 873.07 84.4362C873.07 84.9814 872.969 85.4578 872.768 85.8656C872.568 86.2734 872.289 86.5906 871.929 86.8174C871.572 87.0442 871.155 87.1576 870.679 87.1576ZM870.679 86.4291C871.04 86.4291 871.338 86.3364 871.572 86.1508C871.806 85.9652 871.979 85.7213 872.091 85.4189C872.203 85.1165 872.259 84.7889 872.259 84.4362C872.259 84.0834 872.203 83.7547 872.091 83.45C871.979 83.1453 871.806 82.899 871.572 82.7112C871.338 82.5234 871.04 82.4294 870.679 82.4294C870.317 82.4294 870.019 82.5234 869.785 82.7112C869.551 82.899 869.379 83.1453 869.266 83.45C869.154 83.7547 869.098 84.0834 869.098 84.4362C869.098 84.7889 869.154 85.1165 869.266 85.4189C869.379 85.7213 869.551 85.9652 869.785 86.1508C870.019 86.3364 870.317 86.4291 870.679 86.4291ZM877.634 84.8897V81.7697H878.445V87.0476H877.634V86.1542H877.579C877.456 86.4223 877.263 86.6502 877.002 86.838C876.741 87.0236 876.411 87.1164 876.012 87.1164C875.682 87.1164 875.389 87.0442 875.133 86.8999C874.876 86.7533 874.675 86.5334 874.528 86.2401C874.381 85.9446 874.308 85.5724 874.308 85.1234V81.7697H875.119V85.0684C875.119 85.4533 875.227 85.7602 875.442 85.9893C875.66 86.2184 875.937 86.3329 876.273 86.3329C876.475 86.3329 876.68 86.2814 876.889 86.1783C877.099 86.0752 877.276 85.9171 877.418 85.7041C877.562 85.4911 877.634 85.2196 877.634 84.8897ZM880.741 83.8726V87.0476H879.93V81.7697H880.714V82.5944H880.783C880.906 82.3264 881.094 82.111 881.346 81.9484C881.598 81.7834 881.923 81.701 882.322 81.701C882.679 81.701 882.992 81.7743 883.26 81.9209C883.528 82.0652 883.737 82.2851 883.885 82.5806C884.034 82.8738 884.109 83.245 884.109 83.6939V87.0476H883.298V83.7489C883.298 83.3343 883.19 83.0113 882.975 82.7799C882.76 82.5463 882.464 82.4294 882.088 82.4294C881.829 82.4294 881.598 82.4856 881.394 82.5978C881.193 82.7101 881.033 82.8738 880.917 83.0892C880.8 83.3045 880.741 83.5657 880.741 83.8726ZM887.735 87.1576C887.24 87.1576 886.814 87.0408 886.457 86.8071C886.099 86.5734 885.824 86.2516 885.632 85.8415C885.439 85.4315 885.343 84.963 885.343 84.4362C885.343 83.9001 885.442 83.4271 885.639 83.017C885.838 82.6047 886.115 82.2828 886.47 82.0515C886.828 81.8178 887.245 81.701 887.721 81.701C888.092 81.701 888.427 81.7697 888.724 81.9071C889.022 82.0446 889.266 82.237 889.456 82.4844C889.646 82.7318 889.764 83.0205 889.81 83.3503H888.999C888.937 83.1098 888.8 82.8968 888.587 82.7112C888.376 82.5234 888.092 82.4294 887.735 82.4294C887.419 82.4294 887.141 82.5119 886.903 82.6768C886.667 82.8395 886.483 83.0697 886.35 83.3675C886.219 83.663 886.154 84.0101 886.154 84.4087C886.154 84.8164 886.218 85.1715 886.347 85.4739C886.477 85.7763 886.66 86.0111 886.896 86.1783C887.135 86.3455 887.414 86.4291 887.735 86.4291C887.946 86.4291 888.137 86.3925 888.309 86.3192C888.48 86.2459 888.626 86.1405 888.745 86.003C888.864 85.8656 888.949 85.7007 888.999 85.5082H889.81C889.764 85.8198 889.651 86.1004 889.47 86.3501C889.291 86.5975 889.054 86.7945 888.759 86.9411C888.466 87.0854 888.124 87.1576 887.735 87.1576ZM890.996 87.0476V81.7697H891.779V82.5944H891.848C891.958 82.3126 892.135 82.0938 892.38 81.9381C892.626 81.78 892.92 81.701 893.264 81.701C893.612 81.701 893.902 81.78 894.133 81.9381C894.367 82.0938 894.549 82.3126 894.679 82.5944H894.734C894.869 82.3218 895.072 82.1053 895.342 81.9449C895.613 81.7823 895.937 81.701 896.315 81.701C896.787 81.701 897.173 81.8487 897.473 82.1442C897.773 82.4375 897.923 82.8945 897.923 83.5153V87.0476H897.112V83.5153C897.112 83.1258 897.006 82.8475 896.792 82.6803C896.579 82.5131 896.329 82.4294 896.04 82.4294C895.669 82.4294 895.381 82.5417 895.178 82.7662C894.974 82.9884 894.872 83.2702 894.872 83.6115V87.0476H894.047V83.4328C894.047 83.1327 893.95 82.891 893.755 82.7078C893.56 82.5222 893.309 82.4294 893.002 82.4294C892.792 82.4294 892.595 82.4856 892.411 82.5978C892.23 82.7101 892.084 82.8658 891.972 83.0651C891.862 83.2621 891.807 83.4901 891.807 83.7489V87.0476H890.996ZM901.619 87.1576C901.11 87.1576 900.671 87.0453 900.303 86.8209C899.936 86.5941 899.653 86.2779 899.454 85.8725C899.257 85.4647 899.158 84.9905 899.158 84.4499C899.158 83.9093 899.257 83.4328 899.454 83.0205C899.653 82.6058 899.93 82.2828 900.285 82.0515C900.643 81.8178 901.06 81.701 901.536 81.701C901.811 81.701 902.082 81.7468 902.35 81.8384C902.619 81.9301 902.862 82.079 903.082 82.2851C903.302 82.489 903.478 82.7593 903.608 83.0961C903.739 83.4328 903.804 83.8474 903.804 84.3399V84.6836H899.736V83.9826H902.979C902.979 83.6848 902.92 83.4191 902.801 83.1854C902.684 82.9517 902.517 82.7673 902.299 82.6322C902.084 82.497 901.829 82.4294 901.536 82.4294C901.213 82.4294 900.934 82.5096 900.698 82.67C900.464 82.828 900.284 83.0342 900.158 83.2885C900.032 83.5428 899.969 83.8154 899.969 84.1063V84.5736C899.969 84.9722 900.038 85.3101 900.175 85.5873C900.315 85.8622 900.509 86.0718 900.756 86.2161C901.004 86.3581 901.291 86.4291 901.619 86.4291C901.832 86.4291 902.024 86.3993 902.196 86.3398C902.37 86.2779 902.52 86.1863 902.646 86.0649C902.772 85.9412 902.869 85.7877 902.938 85.6045L903.722 85.8244C903.639 86.0901 903.5 86.3238 903.306 86.5253C903.111 86.7246 902.87 86.8804 902.584 86.9927C902.298 87.1026 901.976 87.1576 901.619 87.1576ZM905.849 83.8726V87.0476H905.038V81.7697H905.821V82.5944H905.89C906.013 82.3264 906.201 82.111 906.453 81.9484C906.705 81.7834 907.031 81.701 907.429 81.701C907.786 81.701 908.099 81.7743 908.367 81.9209C908.635 82.0652 908.844 82.2851 908.993 82.5806C909.141 82.8738 909.216 83.245 909.216 83.6939V87.0476H908.405V83.7489C908.405 83.3343 908.297 83.0113 908.082 82.7799C907.867 82.5463 907.571 82.4294 907.195 82.4294C906.937 82.4294 906.705 82.4856 906.501 82.5978C906.3 82.7101 906.141 82.8738 906.024 83.0892C905.907 83.3045 905.849 83.5657 905.849 83.8726ZM912.993 81.7697V82.4569H910.258V81.7697H912.993ZM911.055 80.5052H911.866V85.5357C911.866 85.7648 911.899 85.9366 911.966 86.0512C912.034 86.1634 912.121 86.239 912.227 86.2779C912.335 86.3146 912.448 86.3329 912.567 86.3329C912.656 86.3329 912.73 86.3283 912.787 86.3192C912.844 86.3077 912.89 86.2986 912.924 86.2917L913.089 87.0201C913.034 87.0408 912.958 87.0614 912.859 87.082C912.761 87.1049 912.636 87.1164 912.485 87.1164C912.256 87.1164 912.031 87.0671 911.811 86.9686C911.593 86.8701 911.412 86.7201 911.268 86.5185C911.126 86.3169 911.055 86.0626 911.055 85.7556V80.5052ZM917.857 82.9517L917.129 83.1579C917.083 83.0365 917.015 82.9185 916.926 82.804C916.839 82.6872 916.72 82.5909 916.568 82.5153C916.417 82.4397 916.224 82.4019 915.988 82.4019C915.665 82.4019 915.396 82.4764 915.18 82.6253C914.967 82.7719 914.861 82.9586 914.861 83.1854C914.861 83.387 914.934 83.5462 915.081 83.663C915.227 83.7798 915.456 83.8772 915.768 83.9551L916.551 84.1475C917.023 84.2621 917.375 84.4373 917.606 84.6733C917.838 84.9069 917.953 85.2081 917.953 85.577C917.953 85.8793 917.866 86.1497 917.692 86.3879C917.52 86.6261 917.28 86.814 916.97 86.9514C916.661 87.0889 916.302 87.1576 915.892 87.1576C915.353 87.1576 914.908 87.0408 914.555 86.8071C914.202 86.5734 913.979 86.2321 913.885 85.7831L914.655 85.5907C914.728 85.8748 914.866 86.0878 915.07 86.2298C915.276 86.3719 915.546 86.4429 915.878 86.4429C916.256 86.4429 916.556 86.3627 916.778 86.2023C917.003 86.0397 917.115 85.845 917.115 85.6182C917.115 85.4349 917.051 85.2815 916.922 85.1578C916.794 85.0318 916.597 84.9378 916.331 84.876L915.452 84.6698C914.968 84.5553 914.613 84.3777 914.386 84.1372C914.162 83.8944 914.05 83.5909 914.05 83.2266C914.05 82.9288 914.133 82.6654 914.301 82.4363C914.47 82.2072 914.7 82.0274 914.991 81.8968C915.284 81.7663 915.617 81.701 915.988 81.701C916.51 81.701 916.92 81.8155 917.218 82.0446C917.518 82.2737 917.731 82.576 917.857 82.9517Z" fill="white"/>
</g>
</g>
<defs>
<filter id="filter0_i_93_6660" x="-117.332" y="-140.909" width="1318.39" height="1296.99" filterUnits="userSpaceOnUse" color-interpolation-filters="sRGB">
<feFlood flood-opacity="0" result="BackgroundImageFix"/>
<feBlend mode="normal" in="SourceGraphic" in2="BackgroundImageFix" result="shape"/>
<feColorMatrix in="SourceAlpha" type="matrix" values="0 0 0 0 0 0 0 0 0 0 0 0 0 0 0 0 0 0 127 0" result="hardAlpha"/>
<feMorphology radius="14.5143" operator="erode" in="SourceAlpha" result="effect1_innerShadow_93_6660"/>
<feOffset dx="14.5143" dy="19.3525"/>
<feGaussianBlur stdDeviation="55.6383"/>
<feComposite in2="hardAlpha" operator="arithmetic" k2="-1" k3="1"/>
<feColorMatrix type="matrix" values="0 0 0 0 0.0235294 0 0 0 0 0.0313726 0 0 0 0 0.34902 0 0 0 0.75 0"/>
<feBlend mode="normal" in2="shape" result="effect1_innerShadow_93_6660"/>
</filter>
<filter id="filter1_i_93_6660" x="-117.331" y="3.39905" width="1024.67" height="1008.37" filterUnits="userSpaceOnUse" color-interpolation-filters="sRGB">
<feFlood flood-opacity="0" result="BackgroundImageFix"/>
<feBlend mode="normal" in="SourceGraphic" in2="BackgroundImageFix" result="shape"/>
<feColorMatrix in="SourceAlpha" type="matrix" values="0 0 0 0 0 0 0 0 0 0 0 0 0 0 0 0 0 0 127 0" result="hardAlpha"/>
<feMorphology radius="14.5143" operator="erode" in="SourceAlpha" result="effect1_innerShadow_93_6660"/>
<feOffset dx="14.5143" dy="19.3525"/>
<feGaussianBlur stdDeviation="55.6383"/>
<feComposite in2="hardAlpha" operator="arithmetic" k2="-1" k3="1"/>
<feColorMatrix type="matrix" values="0 0 0 0 0.0235294 0 0 0 0 0.0313726 0 0 0 0 0.34902 0 0 0 0.75 0"/>
<feBlend mode="normal" in2="shape" result="effect1_innerShadow_93_6660"/>
</filter>
<filter id="filter2_i_93_6660" x="-60.4862" y="125.112" width="872.344" height="859.69" filterUnits="userSpaceOnUse" color-interpolation-filters="sRGB">
<feFlood flood-opacity="0" result="BackgroundImageFix"/>
<feBlend mode="normal" in="SourceGraphic" in2="BackgroundImageFix" result="shape"/>
<feColorMatrix in="SourceAlpha" type="matrix" values="0 0 0 0 0 0 0 0 0 0 0 0 0 0 0 0 0 0 127 0" result="hardAlpha"/>
<feMorphology radius="14.5143" operator="erode" in="SourceAlpha" result="effect1_innerShadow_93_6660"/>
<feOffset dx="14.5143" dy="19.3525"/>
<feGaussianBlur stdDeviation="55.6383"/>
<feComposite in2="hardAlpha" operator="arithmetic" k2="-1" k3="1"/>
<feColorMatrix type="matrix" values="0 0 0 0 0.0235294 0 0 0 0 0.0313726 0 0 0 0 0.34902 0 0 0 0.75 0"/>
<feBlend mode="normal" in2="shape" result="effect1_innerShadow_93_6660"/>
</filter>
<filter id="filter3_d_93_6660" x="792.863" y="58.9047" width="163.286" height="60.4764" filterUnits="userSpaceOnUse" color-interpolation-filters="sRGB">
<feFlood flood-opacity="0" result="BackgroundImageFix"/>
<feColorMatrix in="SourceAlpha" type="matrix" values="0 0 0 0 0 0 0 0 0 0 0 0 0 0 0 0 0 0 127 0" result="hardAlpha"/>
<feOffset dy="6.04764"/>
<feGaussianBlur stdDeviation="9.07146"/>
<feColorMatrix type="matrix" values="0 0 0 0 0 0 0 0 0 0 0 0 0 0 0.0235294 0 0 0 0.15 0"/>
<feBlend mode="normal" in2="BackgroundImageFix" result="effect1_dropShadow_93_6660"/>
<feBlend mode="normal" in="SourceGraphic" in2="effect1_dropShadow_93_6660" result="shape"/>
</filter>
<radialGradient id="paint0_radial_93_6660" cx="0" cy="0" r="1" gradientUnits="userSpaceOnUse" gradientTransform="translate(502.861 83.4575) rotate(90) scale(251.918 364.922)">
<stop stop-color="#3B8AFF"/>
<stop offset="1" stop-color="#0048B3"/>
</radialGradient>
<clipPath id="clip0_93_6660">
<rect width="1005.72" height="166.915" fill="white"/>
</clipPath>
</defs>
</svg>
